<svg width="40" height="37" viewBox="0 0 40 37" fill="none" xmlns="http://www.w3.org/2000/svg">
  <g filter="url(#filter0_d_12_3)">
    <mask id="path-1-inside-1_12_3" fill="white">
      <path d="M31.1384 0.744507V4.1488H31.1267V28.7885H19.5701V23.2172H25.658V6.3158H8.69507L7.09058 13.9144H12.8308L2.48315 33.2552L5.86597 19.5648H0.999756L4.11694 0.744507H31.1384ZM13.2996 23.2172V28.7885H7.84448L11.113 23.2172H13.2996ZM38.9021 24.3344L33.6121 20.0541V9.21326L38.9998 4.85486L38.9021 24.3344Z"/>
    </mask>
    <path d="M31.1384 0.744507V4.1488H31.1267V28.7885H19.5701V23.2172H25.658V6.3158H8.69507L7.09058 13.9144H12.8308L2.48315 33.2552L5.86597 19.5648H0.999756L4.11694 0.744507H31.1384ZM13.2996 23.2172V28.7885H7.84448L11.113 23.2172H13.2996ZM38.9021 24.3344L33.6121 20.0541V9.21326L38.9998 4.85486L38.9021 24.3344Z" fill="black"/>
    <path d="M31.1384 0.744507H32.1384V-0.255493H31.1384V0.744507ZM31.1384 4.1488V5.1488H32.1384V4.1488H31.1384ZM31.1267 4.1488V3.1488H30.1267V4.1488H31.1267ZM31.1267 28.7885V29.7885H32.1267V28.7885H31.1267ZM19.5701 28.7885H18.5701V29.7885H19.5701V28.7885ZM19.5701 23.2172V22.2172H18.5701V23.2172H19.5701ZM25.658 23.2172V24.2172H26.658V23.2172H25.658ZM25.658 6.3158H26.658V5.3158H25.658V6.3158ZM8.69507 6.3158V5.3158H7.88417L7.71664 6.1092L8.69507 6.3158ZM7.09058 13.9144L6.11215 13.7078L5.85737 14.9144H7.09058V13.9144ZM12.8308 13.9144L13.7125 14.3862L14.5 12.9144H12.8308V13.9144ZM2.48315 33.2552L1.51235 33.0154L3.36489 33.727L2.48315 33.2552ZM5.86597 19.5648L6.83677 19.8047L7.14314 18.5648H5.86597V19.5648ZM0.999756 19.5648L0.0131964 19.4014L-0.179497 20.5648H0.999756V19.5648ZM4.11694 0.744507V-0.255493H3.26895L3.13038 0.581104L4.11694 0.744507ZM13.2996 23.2172H14.2996V22.2172H13.2996V23.2172ZM13.2996 28.7885V29.7885H14.2996V28.7885H13.2996ZM7.84448 28.7885L6.98196 28.2824L6.09841 29.7885H7.84448V28.7885ZM11.113 23.2172V22.2172H10.5403L10.2505 22.7111L11.113 23.2172ZM38.9021 24.3344L38.2731 25.1117L39.8916 26.4214L39.9021 24.3394L38.9021 24.3344ZM33.6121 20.0541H32.6121V20.5313L32.9831 20.8315L33.6121 20.0541ZM33.6121 9.21326L32.9831 8.4358L32.6121 8.73597V9.21326H33.6121ZM38.9998 4.85486L39.9997 4.85987L40.0103 2.75112L38.3708 4.0774L38.9998 4.85486ZM31.1384 0.744507H30.1384V4.1488H31.1384H32.1384V0.744507H31.1384ZM31.1384 4.1488V3.1488H31.1267V4.1488V5.1488H31.1384V4.1488ZM31.1267 4.1488H30.1267V28.7885H31.1267H32.1267V4.1488H31.1267ZM31.1267 28.7885V27.7885H19.5701V28.7885V29.7885H31.1267V28.7885ZM19.5701 28.7885H20.5701V23.2172H19.5701H18.5701V28.7885H19.5701ZM19.5701 23.2172V24.2172H25.658V23.2172V22.2172H19.5701V23.2172ZM25.658 23.2172H26.658V6.3158H25.658H24.658V23.2172H25.658ZM25.658 6.3158V5.3158H8.69507V6.3158V7.3158H25.658V6.3158ZM8.69507 6.3158L7.71664 6.1092L6.11215 13.7078L7.09058 13.9144L8.069 14.121L9.67349 6.5224L8.69507 6.3158ZM7.09058 13.9144V14.9144H12.8308V13.9144V12.9144H7.09058V13.9144ZM12.8308 13.9144L11.9491 13.4427L1.60142 32.7835L2.48315 33.2552L3.36489 33.727L13.7125 14.3862L12.8308 13.9144ZM2.48315 33.2552L3.45396 33.4951L6.83677 19.8047L5.86597 19.5648L4.89516 19.3249L1.51235 33.0154L2.48315 33.2552ZM5.86597 19.5648V18.5648H0.999756V19.5648V20.5648H5.86597V19.5648ZM0.999756 19.5648L1.98632 19.7282L5.1035 0.90791L4.11694 0.744507L3.13038 0.581104L0.0131964 19.4014L0.999756 19.5648ZM4.11694 0.744507V1.74451H31.1384V0.744507V-0.255493H4.11694V0.744507ZM13.2996 23.2172H12.2996V28.7885H13.2996H14.2996V23.2172H13.2996ZM13.2996 28.7885V27.7885H7.84448V28.7885V29.7885H13.2996V28.7885ZM7.84448 28.7885L8.707 29.2945L11.9756 23.7232L11.113 23.2172L10.2505 22.7111L6.98196 28.2824L7.84448 28.7885ZM11.113 23.2172V24.2172H13.2996V23.2172V22.2172H11.113V23.2172ZM38.9021 24.3344L39.5311 23.557L34.2411 19.2767L33.6121 20.0541L32.9831 20.8315L38.2731 25.1117L38.9021 24.3344ZM33.6121 20.0541H34.6121V9.21326H33.6121H32.6121V20.0541H33.6121ZM33.6121 9.21326L34.241 9.99072L39.6287 5.63232L38.9998 4.85486L38.3708 4.0774L32.9831 8.4358L33.6121 9.21326ZM38.9998 4.85486L37.9998 4.84985L37.9021 24.3293L38.9021 24.3344L39.9021 24.3394L39.9997 4.85987L38.9998 4.85486Z" fill="black" mask="url(#path-1-inside-1_12_3)"/>
    <rect x="-0.5" y="0.5" width="5.27058" height="4.57125" transform="matrix(-1 0 0 1 18.5698 23.217)" fill="black" stroke="black"/>
  </g>
  <defs>
    <filter id="filter0_d_12_3" x="-3.00024" y="0.744507" width="46" height="40.5109" filterUnits="userSpaceOnUse" color-interpolation-filters="sRGB">
      <feFlood flood-opacity="0" result="BackgroundImageFix"/>
      <feColorMatrix in="SourceAlpha" type="matrix" values="0 0 0 0 0 0 0 0 0 0 0 0 0 0 0 0 0 0 127 0" result="hardAlpha"/>
      <feOffset dy="4"/>
      <feGaussianBlur stdDeviation="2"/>
      <feComposite in2="hardAlpha" operator="out"/>
      <feColorMatrix type="matrix" values="0 0 0 0 0 0 0 0 0 0 0 0 0 0 0 0 0 0 0.25 0"/>
      <feBlend mode="normal" in2="BackgroundImageFix" result="effect1_dropShadow_12_3"/>
      <feBlend mode="normal" in="SourceGraphic" in2="effect1_dropShadow_12_3" result="shape"/>
    </filter>
  </defs>
</svg>
